<?xml version="1.0" encoding="utf-8"?>
<!-- Generator: Adobe Illustrator 19.0.0, SVG Export Plug-In . SVG Version: 6.00 Build 0)  -->
<svg version="1.1" id="Layer_1" xmlns="http://www.w3.org/2000/svg" xmlns:xlink="http://www.w3.org/1999/xlink" x="0px" y="0px"
	 viewBox="0 0 96 96" style="enable-background:new 0 0 96 96;" xml:space="preserve">
<g id="XMLID_1_">
	<path id="XMLID_3_" d="M48,58.6c4.7,0,8.5-3.8,8.5-8.5V29c0-4.7-3.8-8.5-8.5-8.5s-8.5,3.8-8.5,8.5v21.2
		C39.5,54.8,43.3,58.6,48,58.6z"/>
	<path id="XMLID_4_" d="M60.7,39.5c-1,0-1.9,0.8-1.9,1.9v9.1c0,6-4.9,10.8-10.8,10.8s-10.8-4.9-10.8-10.8v-9.1c0-1-0.8-1.9-1.9-1.9
		c-1,0-1.9,0.8-1.9,1.9v9.1c0,7.4,5.5,13.5,12.7,14.4v6.9h-4.8c-1,0-1.9,0.8-1.9,1.9c0,1,0.8,1.9,1.9,1.9h13.2c1,0,1.9-0.8,1.9-1.9
		c0-1-0.8-1.9-1.9-1.9h-4.8v-6.9c7.2-0.9,12.7-7,12.7-14.4v-9.1C62.5,40.4,61.7,39.5,60.7,39.5z"/>
</g>
</svg>
