<?xml version="1.0" encoding="utf-8"?>
<!-- Generator: Adobe Illustrator 19.0.0, SVG Export Plug-In . SVG Version: 6.00 Build 0)  -->
<svg version="1.1" id="Layer_1" xmlns="http://www.w3.org/2000/svg" xmlns:xlink="http://www.w3.org/1999/xlink" x="0px" y="0px"
	 viewBox="0 0 96 96" style="enable-background:new 0 0 96 96;" xml:space="preserve">
<style type="text/css">
	.st0{fill:none;}
	.st1{fill:#333333;}
</style>
<g id="Frames-24px">
	<rect id="XMLID_2_" x="7" y="6.9" class="st0" width="19.8" height="19.8"/>
</g>
<g id="XMLID_1_">
	<path id="XMLID_7_" class="st1" d="M70.6,21.1h-8.5c-1.6,0-2.8,1.3-2.8,2.8v45.2c0,1.6,1.3,2.8,2.8,2.8h8.5c1.6,0,2.8-1.3,2.8-2.8
		V23.9C73.5,22.4,72.2,21.1,70.6,21.1z"/>
	<path id="XMLID_8_" class="st1" d="M22.1,22.8c-1.2-0.9-2.3-0.4-2.3,1.1v45.2c0,1.6,1,2.1,2.3,1.1l29.4-22c1.2-0.9,1.2-2.5,0-3.4
		L22.1,22.8z"/>
</g>
</svg>
